<?xml version="1.0" standalone="no"?>
<!DOCTYPE svg PUBLIC "-//W3C//DTD SVG 20010904//EN"
 "http://www.w3.org/TR/2001/REC-SVG-20010904/DTD/svg10.dtd">
<svg version="1.0" xmlns="http://www.w3.org/2000/svg"
 width="512.000000pt" height="512.000000pt" viewBox="0 0 512.000000 512.000000"
 preserveAspectRatio="xMidYMid meet">
<metadata>
Created by potrace 1.16, written by Peter Selinger 2001-2019
</metadata>
<g transform="translate(0.000000,512.000000) scale(0.100000,-0.100000)"
fill="#fff" stroke="none">
<path d="M1309 5091 c-27 -28 -29 -34 -29 -110 l0 -81 1280 0 1280 0 0 81 c0
76 -2 82 -29 110 l-29 29 -1222 0 -1222 0 -29 -29z"/>
<path d="M1123 4684 c-68 -34 -63 160 -61 -2354 l3 -2272 33 -29 32 -29 825 0
825 0 0 390 0 390 29 32 29 33 362 0 362 0 29 -33 29 -32 0 -390 0 -390 185 0
185 0 32 29 33 29 3 2272 c2 2057 1 2275 -14 2305 -33 70 71 65 -1486 65
-1254 0 -1406 -2 -1435 -16z m543 -458 l34 -34 0 -132 c0 -136 -6 -162 -44
-192 -43 -36 -117 -16 -145 39 -6 13 -11 76 -11 153 l0 132 34 34 c25 25 43
34 66 34 23 0 42 -9 66 -34z m640 0 l34 -34 0 -132 c0 -136 -6 -162 -44 -192
-43 -36 -117 -16 -145 39 -6 13 -11 76 -11 153 l0 132 34 34 c25 25 43 34 66
34 23 0 42 -9 66 -34z m640 0 l34 -34 0 -132 c0 -136 -6 -162 -44 -192 -43
-36 -117 -16 -145 39 -6 13 -11 76 -11 153 l0 132 34 34 c25 25 43 34 66 34
23 0 42 -9 66 -34z m640 0 l34 -34 0 -132 c0 -136 -6 -162 -44 -192 -43 -36
-117 -16 -145 39 -6 13 -11 76 -11 153 l0 132 34 34 c25 25 43 34 66 34 23 0
42 -9 66 -34z m-1913 -857 c27 -29 27 -30 27 -169 0 -139 0 -140 -28 -171 -24
-26 -36 -32 -72 -32 -36 0 -48 6 -72 32 -28 31 -28 32 -28 170 0 135 1 141 25
170 42 49 102 49 148 0z m640 0 c27 -29 27 -30 27 -169 0 -139 0 -140 -28
-171 -24 -26 -36 -32 -72 -32 -36 0 -48 6 -72 32 -28 31 -28 32 -28 170 0 135
1 141 25 170 42 49 102 49 148 0z m640 0 c27 -29 27 -30 27 -169 0 -139 0
-140 -28 -171 -24 -26 -36 -32 -72 -32 -36 0 -48 6 -72 32 -28 31 -28 32 -28
170 0 135 1 141 25 170 42 49 102 49 148 0z m640 0 c27 -29 27 -30 27 -169 0
-139 0 -140 -28 -171 -24 -26 -36 -32 -72 -32 -36 0 -48 6 -72 32 -28 31 -28
32 -28 170 0 135 1 141 25 170 42 49 102 49 148 0z m-1937 -837 c38 -30 44
-56 44 -192 l0 -132 -34 -34 c-24 -24 -43 -34 -66 -34 -23 0 -41 10 -66 34
l-34 34 0 132 c0 77 5 140 11 153 18 35 51 57 89 57 19 0 45 -8 56 -18z m640
0 c38 -30 44 -56 44 -192 l0 -132 -34 -34 c-24 -24 -43 -34 -66 -34 -23 0 -41
10 -66 34 l-34 34 0 132 c0 77 5 140 11 153 18 35 51 57 89 57 19 0 45 -8 56
-18z m640 0 c38 -30 44 -56 44 -192 l0 -132 -34 -34 c-24 -24 -43 -34 -66 -34
-23 0 -41 10 -66 34 l-34 34 0 132 c0 77 5 140 11 153 18 35 51 57 89 57 19 0
45 -8 56 -18z m640 0 c38 -30 44 -56 44 -192 l0 -132 -34 -34 c-24 -24 -43
-34 -66 -34 -23 0 -41 10 -66 34 l-34 34 0 132 c0 77 5 140 11 153 18 35 51
57 89 57 19 0 45 -8 56 -18z m-1910 -866 l34 -34 0 -132 c0 -136 -6 -162 -44
-192 -43 -36 -117 -16 -145 39 -6 13 -11 76 -11 153 l0 132 34 34 c25 25 43
34 66 34 23 0 42 -9 66 -34z m640 0 l34 -34 0 -132 c0 -136 -6 -162 -44 -192
-43 -36 -117 -16 -145 39 -6 13 -11 76 -11 153 l0 132 34 34 c25 25 43 34 66
34 23 0 42 -9 66 -34z m640 0 l34 -34 0 -132 c0 -136 -6 -162 -44 -192 -43
-36 -117 -16 -145 39 -6 13 -11 76 -11 153 l0 132 34 34 c25 24 43 34 66 34
23 0 42 -10 66 -34z m640 0 l34 -34 0 -132 c0 -136 -6 -162 -44 -192 -43 -36
-117 -16 -145 39 -6 13 -11 76 -11 153 l0 132 34 34 c25 24 43 34 66 34 23 0
42 -10 66 -34z m-1913 -857 c27 -29 27 -30 27 -169 0 -139 0 -140 -28 -171
-24 -26 -36 -32 -72 -32 -36 0 -48 6 -72 32 -28 31 -28 32 -28 170 0 135 1
141 25 170 42 49 102 49 148 0z m640 0 c27 -29 27 -30 27 -169 0 -139 0 -140
-28 -171 -24 -26 -36 -32 -72 -32 -36 0 -48 6 -72 32 -28 31 -28 32 -28 170 0
135 1 141 25 170 42 49 102 49 148 0z"/>
</g>
</svg>
