<?xml version="1.0" standalone="no"?>
<!DOCTYPE svg PUBLIC "-//W3C//DTD SVG 20010904//EN"
 "http://www.w3.org/TR/2001/REC-SVG-20010904/DTD/svg10.dtd">
<svg version="1.0" xmlns="http://www.w3.org/2000/svg"
 width="1600.000000pt" height="1600.000000pt" viewBox="0 0 1600.000000 1600.000000"
 preserveAspectRatio="xMidYMid meet">

<g transform="translate(0.000000,1600.000000) scale(0.100000,-0.100000)"
fill="#fff" stroke="none">
<path d="M3627 15985 c-395 -75 -696 -353 -794 -735 -152 -591 257 -1176 866
-1239 285 -30 571 67 780 264 407 385 422 1025 32 1423 -125 128 -302 230
-471 272 -113 28 -307 35 -413 15z"/>
<path d="M6859 15470 c-106 -18 -206 -98 -256 -205 l-28 -60 -3 -1387 c-1
-764 0 -1388 2 -1388 3 0 96 57 208 127 227 141 326 192 422 218 l66 18 0 993
0 994 3495 0 3495 0 0 -2500 0 -2500 -3495 0 -3495 0 -2 405 -3 405 -348 -216
-348 -217 3 -396 c3 -385 4 -398 26 -453 30 -75 101 -149 177 -185 l60 -28
3930 0 3930 0 47 22 c66 30 143 105 175 172 l28 56 0 2935 0 2935 -27 57 c-50
107 -146 179 -264 198 -71 12 -7726 12 -7795 0z"/>
<path d="M2386 13679 c-535 -56 -957 -478 -1015 -1014 -6 -53 -13 -848 -16
-1910 -7 -1819 -7 -1820 14 -1885 55 -175 207 -304 390 -333 249 -38 497 140
540 388 6 38 12 592 16 1540 3 814 8 1625 11 1802 l6 323 26 25 c27 27 77 34
113 15 52 -28 49 133 49 -2580 l0 -2510 54 0 c150 0 383 -38 523 -86 176 -59
404 -187 526 -294 l47 -42 0 976 0 976 125 0 125 0 0 -1117 0 -1116 55 -92
c92 -155 160 -332 198 -520 31 -157 31 -463 -1 -611 -32 -150 -79 -285 -142
-410 l-56 -112 91 -7 c89 -7 296 -38 326 -50 9 -3 38 13 74 41 146 114 314
204 494 264 l116 39 0 3598 c0 1979 4 3608 8 3620 11 29 70 56 107 48 16 -4
41 -20 55 -37 l25 -30 1 -506 c1 -279 4 -707 8 -952 7 -431 8 -447 30 -502 48
-122 157 -231 280 -280 79 -31 261 -32 338 -1 29 11 447 265 929 564 640 397
894 560 941 603 168 156 198 411 70 608 -118 182 -353 262 -558 190 -30 -10
-281 -160 -558 -331 -277 -172 -505 -311 -506 -309 -2 2 -6 224 -10 493 -6
537 -13 609 -67 765 -60 172 -150 310 -290 446 -124 120 -249 198 -415 257
-138 50 -215 59 -539 64 l-301 5 -78 -198 c-43 -110 -118 -298 -167 -419 -49
-121 -149 -367 -221 -547 -72 -180 -133 -325 -135 -323 -2 2 26 135 63 296 48
206 66 303 62 331 -3 24 -47 116 -111 233 l-106 194 90 164 c49 90 90 175 90
189 0 17 -10 34 -26 47 -25 20 -39 21 -284 21 -359 0 -357 1 -217 -253 48 -87
87 -162 87 -169 0 -6 -47 -97 -105 -203 -97 -177 -105 -195 -105 -246 0 -30
27 -187 59 -349 32 -162 58 -296 57 -297 -1 -1 -130 329 -286 735 -155 405
-289 749 -297 765 l-14 27 -257 -1 c-141 -1 -293 -5 -336 -10z"/>
<path d="M9265 13638 c-45 -16 -45 -17 -680 -517 l-588 -464 39 -31 c119 -93
224 -216 278 -324 25 -49 29 -53 44 -40 9 8 281 223 604 477 323 254 597 476
609 492 70 98 62 235 -18 329 -67 78 -193 112 -288 78z"/>
<path d="M2436 6970 c-226 -36 -417 -132 -583 -293 -143 -139 -239 -302 -290
-495 -23 -85 -26 -117 -26 -257 0 -141 3 -172 26 -260 51 -190 172 -396 305
-516 126 -114 283 -200 445 -245 115 -32 317 -43 434 -24 445 71 794 410 878
853 19 102 19 270 0 382 -72 413 -402 751 -819 841 -87 19 -290 26 -370 14z"/>
<path d="M8126 6970 c-267 -42 -508 -180 -672 -385 -286 -355 -311 -855 -62
-1236 197 -303 518 -477 879 -479 486 -1 899 316 1027 789 23 85 26 115 26
261 0 136 -3 180 -21 250 -97 383 -390 679 -768 776 -113 28 -307 40 -409 24z"/>
<path d="M13275 6959 c-241 -31 -505 -172 -656 -352 -167 -199 -245 -395 -256
-644 -13 -305 81 -561 286 -776 164 -171 368 -281 594 -317 123 -20 341 -8
452 24 692 202 990 994 601 1595 -64 100 -195 233 -294 298 -218 145 -469 204
-727 172z"/>
<path d="M5299 4864 c-338 -61 -642 -304 -780 -624 -67 -156 -84 -242 -83
-430 1 -144 4 -177 26 -261 109 -405 435 -708 845 -785 109 -20 333 -15 438
11 377 91 672 374 779 747 171 596 -205 1214 -812 1338 -118 24 -296 26 -413
4z"/>
<path d="M10590 4849 c-401 -34 -763 -312 -901 -689 -52 -143 -63 -210 -62
-380 0 -135 4 -168 27 -255 101 -384 393 -673 784 -776 110 -29 309 -36 429
-15 340 59 627 273 778 581 64 131 91 223 107 368 53 493 -261 970 -739 1120
-138 44 -276 59 -423 46z"/>
<path d="M1059 4519 c-456 -67 -833 -381 -979 -817 -56 -167 -58 -203 -66
-910 l-7 -652 510 0 510 0 6 609 c6 664 4 643 63 669 43 20 81 14 116 -17 l33
-29 3 -616 2 -616 715 0 714 0 54 78 c289 409 745 678 1244 733 l110 13 -58
113 c-67 130 -129 313 -155 458 -26 136 -25 410 0 549 20 113 73 285 116 381
l29 65 -1452 -1 c-799 -1 -1477 -5 -1508 -10z"/>
<path d="M6957 4420 c177 -437 158 -922 -53 -1338 -30 -58 -54 -106 -54 -107
0 -1 53 -5 118 -8 366 -19 771 -192 1045 -446 48 -45 91 -81 95 -81 4 0 24 16
43 36 18 20 75 66 124 103 278 208 605 332 923 348 61 3 112 8 112 11 0 3 -25
54 -56 114 -71 140 -126 309 -154 473 -19 112 -22 154 -17 305 8 240 48 420
142 626 l34 74 -1174 0 -1173 0 45 -110z"/>
<path d="M12130 4515 c0 -3 11 -27 24 -53 13 -27 40 -93 59 -148 144 -414 117
-856 -78 -1250 -30 -61 -55 -113 -55 -116 0 -3 39 -8 88 -11 260 -18 565 -126
803 -285 181 -121 313 -247 447 -424 l65 -88 634 0 633 0 0 601 0 601 34 34
c45 45 104 48 145 6 l28 -27 6 -229 c4 -126 7 -400 7 -608 l0 -378 510 0 510
0 -1 348 c0 191 -4 498 -9 682 -7 315 -9 341 -33 433 -102 387 -378 699 -740
835 -49 18 -129 43 -176 55 -85 21 -97 21 -1493 24 -775 2 -1408 1 -1408 -2z"/>
<path d="M3995 2404 c-249 -44 -472 -157 -655 -331 -153 -145 -254 -299 -319
-487 -57 -161 -59 -192 -67 -919 l-7 -667 510 0 510 0 6 621 c7 679 5 657 65
680 34 13 68 4 98 -26 l24 -24 0 -626 0 -625 1350 0 1350 0 2 631 3 631 28 24
c30 26 83 32 119 13 47 -25 48 -38 48 -689 l0 -610 1020 0 1020 0 0 588 c0
376 4 600 11 624 20 75 120 90 159 25 19 -31 20 -55 20 -634 l0 -603 1350 0
1350 0 0 605 c0 430 3 611 11 629 18 39 71 60 115 46 72 -24 69 6 72 -672 l3
-608 510 0 509 0 0 473 c-1 654 -11 884 -44 1010 -53 207 -147 374 -301 534
-161 170 -343 278 -574 341 l-96 27 -1490 3 c-1327 2 -1500 1 -1585 -13 -505
-85 -921 -485 -1014 -975 -9 -45 -17 -108 -17 -139 l-1 -56 -8 50 c-4 28 -13
91 -20 140 -22 175 -109 385 -221 535 -113 152 -304 309 -461 379 -95 43 -213
79 -312 96 -128 22 -2946 21 -3071 -1z"/>
</g>
</svg>
