<?xml version="1.0" standalone="no"?>
<!DOCTYPE svg PUBLIC "-//W3C//DTD SVG 20010904//EN"
 "http://www.w3.org/TR/2001/REC-SVG-20010904/DTD/svg10.dtd">
<svg version="1.0" xmlns="http://www.w3.org/2000/svg"
 width="512.000000pt" height="512.000000pt" viewBox="0 0 512.000000 512.000000"
 preserveAspectRatio="xMidYMid meet">
<metadata>
Created by potrace 1.16, written by Peter Selinger 2001-2019
</metadata>
<g transform="translate(0.000000,512.000000) scale(0.100000,-0.100000)"
fill="#fff" stroke="none">
<path d="M2360 5101 c-113 -26 -89 -17 -773 -265 -329 -119 -624 -229 -656
-245 -73 -37 -140 -102 -171 -166 l-25 -50 -3 -500 -3 -501 24 -44 c72 -137
282 -137 354 -1 22 43 23 52 23 298 0 139 2 253 4 253 8 0 308 -109 312 -113
2 -2 -3 -26 -11 -53 -20 -69 -63 -310 -75 -429 -6 -55 -14 -211 -17 -346 -6
-243 -5 -248 17 -294 32 -66 88 -99 190 -114 269 -40 581 -149 851 -297 110
-60 125 -66 179 -66 54 0 69 6 187 70 267 146 577 254 843 293 102 15 158 48
190 114 22 46 23 51 17 294 -3 135 -11 291 -17 346 -12 119 -55 360 -75 429
-8 27 -14 51 -12 52 1 2 109 41 240 88 130 47 256 95 279 107 59 30 136 106
166 164 24 44 27 61 27 150 0 86 -3 107 -24 149 -32 64 -104 135 -172 168 -74
36 -1278 473 -1376 500 -114 30 -375 35 -493 9z m370 -402 c24 -5 300 -103
612 -216 l568 -206 -552 -199 c-304 -109 -579 -205 -612 -214 -68 -18 -244
-20 -307 -4 -24 6 -181 59 -348 118 l-303 107 428 5 c467 5 468 6 526 64 88
89 77 228 -25 310 l-39 31 -401 3 -402 3 235 86 c129 47 264 94 300 104 74 20
247 25 320 8z m-520 -1200 c124 -43 238 -61 375 -61 167 0 262 20 516 111 121
43 221 76 223 72 2 -3 13 -49 24 -101 25 -117 49 -313 58 -482 l6 -126 -58
-12 c-184 -38 -492 -149 -681 -244 l-93 -46 -92 46 c-190 95 -498 206 -682
244 l-58 12 6 126 c9 169 33 365 58 482 11 52 22 98 24 102 3 4 69 -16 147
-43 78 -28 180 -64 227 -80z"/>
<path d="M165 4033 c-16 -8 -42 -27 -57 -41 -33 -31 -82 -153 -98 -243 -8 -45
-10 -400 -8 -1189 l3 -1125 27 -80 c93 -269 299 -462 573 -537 79 -22 93 -22
918 -26 l837 -3 0 -189 0 -189 -372 -3 c-369 -3 -373 -3 -421 -27 -30 -15 -58
-38 -75 -64 -23 -35 -27 -51 -27 -117 0 -87 20 -127 83 -171 l36 -24 976 0
976 0 36 24 c63 44 83 84 83 171 0 66 -4 82 -27 117 -17 26 -45 49 -75 64 -48
24 -52 24 -420 27 l-373 3 0 189 0 189 838 3 c824 4 838 4 917 26 275 75 484
271 572 537 22 68 26 99 27 201 1 112 -1 123 -23 156 -44 63 -84 83 -171 83
-64 0 -82 -4 -112 -24 -59 -41 -78 -80 -94 -188 -18 -121 -50 -190 -121 -261
-63 -63 -139 -100 -231 -113 -41 -6 -783 -8 -1852 -7 l-1785 3 -58 23 c-117
48 -219 160 -249 275 -10 42 -13 253 -13 1102 l0 1050 28 85 c35 104 32 164
-10 225 -53 76 -180 109 -258 68z"/>
<path d="M4770 4028 c-58 -30 -99 -88 -106 -153 -5 -39 0 -67 22 -130 l27 -80
6 -570 6 -570 23 -38 c78 -125 280 -118 349 12 l23 44 0 581 c0 626 -2 647
-54 776 -14 35 -36 75 -49 88 -59 64 -165 81 -247 40z"/>
</g>
</svg>
