<?xml version="1.0" standalone="no"?>
<!DOCTYPE svg PUBLIC "-//W3C//DTD SVG 20010904//EN"
 "http://www.w3.org/TR/2001/REC-SVG-20010904/DTD/svg10.dtd">
<svg version="1.0" xmlns="http://www.w3.org/2000/svg"
 width="512.000000pt" height="512.000000pt" viewBox="0 0 512.000000 512.000000"
 preserveAspectRatio="xMidYMid meet">

<g transform="translate(0.000000,512.000000) scale(0.100000,-0.100000)"
fill="#fff" stroke="none">
<path d="M1173 5105 c-81 -22 -132 -52 -193 -114 -98 -98 -142 -232 -120 -360
13 -75 39 -140 76 -189 l26 -34 -197 -295 c-175 -263 -199 -294 -218 -289 -12
4 -52 9 -88 13 -253 23 -477 -202 -456 -456 15 -176 132 -322 302 -375 42 -14
79 -17 145 -14 77 4 98 9 163 41 91 45 156 112 200 205 25 55 32 82 35 154 5
103 -10 162 -65 251 l-35 59 196 294 c192 288 197 294 224 287 15 -5 65 -8
112 -8 47 0 97 3 112 8 27 7 32 1 224 -287 l196 -294 -41 -67 c-49 -83 -65
-149 -59 -252 9 -149 95 -280 229 -347 37 -19 85 -37 107 -41 l39 -6 47 -335
c27 -184 47 -336 45 -338 -2 -1 -28 -17 -57 -35 -229 -144 -268 -463 -80 -654
29 -30 61 -59 71 -64 17 -9 13 -29 -63 -294 -45 -156 -90 -314 -101 -351 l-20
-68 -38 0 c-49 0 -135 -26 -187 -56 -59 -35 -141 -125 -169 -186 -76 -168 -43
-351 86 -481 227 -227 611 -131 705 175 16 52 21 58 49 63 36 5 1256 125 1270
125 6 -1 21 -23 34 -50 31 -64 125 -154 193 -185 168 -76 351 -43 481 86 166
166 168 425 3 595 l-55 57 173 461 173 461 34 3 c133 9 223 46 304 123 217
205 160 557 -110 690 -66 32 -75 34 -180 34 -103 0 -114 -2 -177 -32 -124 -58
-211 -167 -241 -299 l-13 -58 -760 -138 c-417 -75 -762 -138 -765 -138 -3 0
-15 17 -27 38 -26 46 -115 133 -163 158 -19 10 -61 25 -94 34 l-60 17 -47 319
c-26 175 -47 326 -48 335 0 9 26 32 61 54 71 44 141 127 169 204 92 243 -53
511 -309 571 -51 12 -156 9 -208 -6 -19 -5 -43 26 -218 289 l-197 295 26 34
c64 85 95 214 76 319 -46 250 -288 408 -527 344z m210 -227 c154 -86 136 -315
-29 -384 -130 -54 -284 53 -284 196 0 168 167 268 313 188z m-841 -1289 c114
-73 129 -228 33 -324 -68 -69 -156 -82 -244 -39 -132 66 -157 229 -51 334 76
77 170 87 262 29z m1646 29 c64 -16 134 -86 151 -151 52 -208 -203 -354 -354
-203 -69 69 -83 157 -39 245 28 56 79 98 136 111 47 11 54 11 106 -2z m2601
-1084 c90 -45 134 -140 110 -238 -17 -70 -86 -138 -156 -155 -89 -22 -183 17
-228 92 -53 91 -41 191 30 262 68 69 155 83 244 39z m-376 -509 l36 -30 -175
-466 c-155 -411 -178 -466 -194 -462 -31 8 -151 -16 -208 -42 -61 -28 -151
-110 -186 -169 -13 -23 -31 -66 -40 -97 l-16 -55 -653 -65 -652 -65 -29 54
c-16 29 -58 80 -94 113 l-64 60 98 344 97 343 73 12 c178 28 321 161 356 331
10 50 15 59 37 63 14 3 278 51 586 106 308 56 641 116 740 134 l179 32 36 -56
c20 -30 53 -69 73 -85z m-1980 89 c74 -37 112 -91 123 -173 9 -67 -14 -128
-65 -174 -50 -45 -100 -61 -169 -54 -212 22 -257 316 -62 401 46 20 133 20
173 0z m1698 -1278 c85 -36 133 -105 133 -196 1 -192 -239 -283 -368 -140 -96
106 -64 264 69 333 38 20 122 21 166 3z m-2140 -211 c169 -60 188 -297 29
-384 -93 -52 -211 -23 -274 67 -40 57 -48 149 -18 208 54 104 156 146 263 109z"/>
</g>
</svg>
