<?xml version="1.0" standalone="no"?>
<!DOCTYPE svg PUBLIC "-//W3C//DTD SVG 20010904//EN"
 "http://www.w3.org/TR/2001/REC-SVG-20010904/DTD/svg10.dtd">
<svg version="1.0" xmlns="http://www.w3.org/2000/svg"
 width="512.000000pt" height="512.000000pt" viewBox="0 0 512.000000 512.000000"
 preserveAspectRatio="xMidYMid meet">

<g transform="translate(0.000000,512.000000) scale(0.100000,-0.100000)"
fill="#fff" stroke="none">
<path d="M3191 4698 l-465 -151 -15 24 c-29 45 -82 88 -121 99 -26 7 -431 9
-1247 8 l-1208 -3 -38 -24 c-21 -13 -50 -42 -65 -64 l-27 -41 0 -2065 0 -2066
24 -38 c13 -21 42 -50 64 -65 l41 -27 1232 0 1232 0 43 30 c23 17 53 50 66 74
l23 44 0 1300 c0 715 2 1298 5 1296 2 -3 197 -599 433 -1325 236 -726 437
-1333 447 -1348 10 -15 38 -39 63 -53 80 -47 95 -45 627 129 264 86 531 173
593 193 125 40 173 73 203 140 10 22 19 56 19 75 0 34 -1234 3851 -1265 3909
-27 54 -114 102 -180 101 -11 -1 -229 -69 -484 -152z m414 -455 c27 -82 72
-221 101 -311 28 -89 49 -164 45 -166 -35 -19 -745 -246 -751 -240 -12 14
-203 614 -197 620 7 7 728 243 743 244 7 0 33 -66 59 -147z m-2445 -363 l0
-400 -380 0 -380 0 0 400 0 400 380 0 380 0 0 -400z m1170 0 l0 -400 -385 0
-385 0 0 400 0 400 385 0 385 0 0 -400z m1946 -1702 c215 -662 390 -1204 389
-1205 -3 -4 -741 -243 -751 -243 -8 0 -784 2372 -784 2396 0 9 710 252 740
253 12 1 109 -285 406 -1201z m-3116 -298 l0 -1200 -380 0 -380 0 0 1200 0
1200 380 0 380 0 0 -1200z m1170 0 l0 -1200 -385 0 -385 0 0 1200 0 1200 385
0 385 0 0 -1200z"/>
</g>
</svg>
