<?xml version="1.0" standalone="no"?>
<!DOCTYPE svg PUBLIC "-//W3C//DTD SVG 20010904//EN"
 "http://www.w3.org/TR/2001/REC-SVG-20010904/DTD/svg10.dtd">
<svg version="1.0" xmlns="http://www.w3.org/2000/svg"
 width="512.000000pt" height="512.000000pt" viewBox="0 0 512.000000 512.000000"
 preserveAspectRatio="xMidYMid meet">

<g transform="translate(0.000000,512.000000) scale(0.100000,-0.100000)"
fill="#fff" stroke="none">
<path d="M2445 5114 c-337 -50 -616 -235 -771 -511 l-46 -83 -552 0 c-437 0
-562 -3 -603 -14 -171 -46 -317 -187 -367 -356 -14 -48 -16 -203 -16 -1461 0
-1376 0 -1408 20 -1470 27 -87 65 -149 130 -215 68 -68 186 -129 280 -144 39
-6 335 -10 737 -10 l671 0 -56 -170 -57 -170 -500 0 c-314 0 -514 -4 -537 -10
-58 -16 -119 -69 -151 -130 -26 -49 -28 -63 -25 -125 3 -38 12 -85 22 -102 23
-45 75 -95 122 -119 38 -19 78 -19 1814 -19 1736 0 1776 0 1814 19 47 24 99
74 122 119 10 17 19 64 22 102 3 62 1 76 -25 125 -32 61 -93 114 -151 130 -23
6 -223 10 -537 10 l-500 0 -57 170 -56 170 671 0 c402 0 698 4 737 10 94 15
212 76 280 144 65 66 103 128 130 215 20 62 20 94 20 1470 0 1258 -2 1413 -16
1461 -50 169 -196 310 -367 356 -41 11 -166 14 -604 14 l-553 0 -29 59 c-122
241 -373 436 -650 507 -94 24 -290 39 -366 28z m260 -179 c273 -48 499 -218
620 -468 59 -124 75 -190 82 -333 4 -92 2 -140 -12 -205 -54 -269 -243 -504
-492 -612 -115 -51 -206 -69 -343 -69 -137 0 -228 18 -343 69 -249 108 -438
343 -492 612 -21 101 -16 291 10 386 25 95 109 253 172 327 204 237 497 345
798 293z m-1138 -599 c-17 -45 -29 -192 -24 -300 7 -152 36 -260 112 -411 l55
-110 0 -275 0 -275 -173 -58 c-95 -31 -178 -57 -184 -57 -6 0 -25 25 -42 55
-103 183 -370 216 -521 65 -123 -123 -133 -323 -24 -457 163 -199 487 -144
575 99 l21 57 232 77 c157 52 239 84 256 100 l25 24 3 230 3 230 62 -48 c76
-58 221 -134 300 -157 l57 -16 0 -253 0 -253 -70 -47 c-38 -25 -73 -46 -77
-46 -3 0 -36 12 -72 26 -56 23 -76 26 -147 22 -100 -5 -172 -37 -234 -104
-186 -202 -95 -512 171 -580 159 -41 326 40 400 194 30 62 38 183 15 251 -9
27 -16 52 -16 54 0 3 35 28 79 56 131 86 120 54 123 370 l3 274 85 0 85 0 3
-188 c2 -129 6 -193 15 -203 6 -8 51 -41 99 -74 49 -32 88 -62 88 -67 0 -5 -7
-28 -15 -51 -40 -114 -7 -250 84 -341 77 -76 146 -102 256 -97 132 7 238 77
293 196 23 48 27 71 27 142 0 72 -4 93 -27 141 -56 114 -161 186 -284 195 -67
5 -103 -2 -189 -37 -29 -11 -35 -9 -103 36 l-72 48 0 168 0 168 58 16 c78 23
223 99 299 157 l63 49 0 -178 c0 -121 4 -186 13 -203 9 -19 75 -57 260 -150
208 -105 249 -129 254 -150 12 -52 68 -143 108 -176 69 -56 129 -77 220 -78
66 0 90 4 136 26 144 67 222 209 198 361 -48 296 -426 390 -604 151 -16 -23
-35 -49 -40 -59 -10 -16 -28 -9 -193 74 l-182 91 0 238 0 237 55 110 c78 155
105 259 112 421 5 116 -3 221 -23 287 -5 17 21 17 523 15 l528 -3 67 -33 c73
-36 124 -87 160 -161 l23 -46 3 -1197 2 -1198 -2300 0 -2300 0 0 1184 c0 1297
-4 1219 60 1311 38 56 84 90 157 121 l58 24 519 0 c440 0 517 -2 513 -14z
m-442 -1471 c115 -87 71 -274 -71 -301 -117 -22 -225 92 -194 206 13 48 53 98
95 116 48 22 127 13 170 -21z m3038 21 c18 -7 45 -28 60 -45 61 -73 55 -167
-14 -233 -133 -127 -338 24 -265 195 34 80 135 119 219 83z m-907 -361 c79
-60 93 -165 32 -239 -54 -66 -134 -84 -208 -46 -56 28 -83 72 -87 139 -3 44 1
64 19 96 49 85 166 109 244 50z m-1215 -158 c143 -75 104 -297 -55 -314 -60
-7 -108 11 -150 57 -46 51 -56 110 -28 172 42 97 142 133 233 85z m2819 -947
c0 -147 -20 -209 -89 -283 -56 -60 -119 -93 -202 -107 -88 -14 -3930 -14
-4018 0 -83 14 -146 47 -202 107 -69 74 -89 136 -89 283 l0 120 2300 0 2300 0
0 -120z m-1793 -735 c29 -88 53 -163 53 -167 0 -5 -252 -8 -560 -8 -308 0
-560 4 -560 8 0 6 88 275 105 320 3 10 100 12 456 10 l452 -3 54 -160z m1257
-371 c42 -43 33 -104 -21 -132 -31 -17 -3455 -17 -3486 0 -54 28 -63 89 -21
132 l27 26 1737 0 1737 0 27 -26z"/>
<path d="M2515 4761 c-16 -10 -103 -93 -193 -183 l-162 -163 60 -60 60 -59 95
94 95 95 0 -278 0 -277 90 0 90 0 0 277 0 278 95 -95 95 -94 60 59 60 60 -167
168 c-158 159 -204 197 -235 197 -7 0 -26 -9 -43 -19z"/>
<path d="M2050 3786 c0 -139 1 -146 24 -173 l24 -28 462 0 462 0 24 28 c23 27
24 34 24 173 l0 145 -82 -3 -83 -3 -3 -87 -3 -88 -339 0 -339 0 -3 88 -3 87
-82 3 -83 3 0 -145z"/>
<path d="M517 4093 c-4 -3 -7 -42 -7 -85 l0 -78 85 0 85 0 0 85 0 85 -78 0
c-43 0 -82 -3 -85 -7z"/>
<path d="M857 4093 c-4 -3 -7 -42 -7 -85 l0 -78 215 0 215 0 0 85 0 85 -208 0
c-115 0 -212 -3 -215 -7z"/>
<path d="M3840 4015 l0 -85 85 0 85 0 0 85 0 85 -85 0 -85 0 0 -85z"/>
<path d="M4180 4015 l0 -85 215 0 216 0 -3 83 -3 82 -212 3 -213 2 0 -85z"/>
<path d="M512 3668 l3 -83 383 -3 382 -2 0 85 0 85 -385 0 -386 0 3 -82z"/>
<path d="M3840 3665 l0 -85 383 2 382 3 3 83 3 82 -386 0 -385 0 0 -85z"/>
<path d="M510 3325 l0 -85 255 0 255 0 0 85 0 85 -255 0 -255 0 0 -85z"/>
<path d="M3840 3325 l0 -85 255 0 255 0 0 85 0 85 -255 0 -255 0 0 -85z"/>
<path d="M510 2045 l0 -85 85 0 85 0 0 85 0 85 -85 0 -85 0 0 -85z"/>
<path d="M852 2048 l3 -83 83 -3 82 -3 0 86 0 85 -85 0 -86 0 3 -82z"/>
<path d="M1192 2048 l3 -83 85 0 85 0 3 83 3 82 -91 0 -91 0 3 -82z"/>
<path d="M3752 2048 l3 -83 85 0 85 0 3 83 3 82 -91 0 -91 0 3 -82z"/>
<path d="M4100 2045 l0 -86 83 3 82 3 3 83 3 82 -86 0 -85 0 0 -85z"/>
<path d="M4440 2045 l0 -85 85 0 85 0 0 85 0 85 -85 0 -85 0 0 -85z"/>
<path d="M2474 1357 c-3 -8 -4 -47 -2 -88 l3 -74 85 0 85 0 0 85 0 85 -83 3
c-63 2 -84 0 -88 -11z"/>
</g>
</svg>
