<?xml version="1.0" standalone="no"?>
<!DOCTYPE svg PUBLIC "-//W3C//DTD SVG 20010904//EN"
 "http://www.w3.org/TR/2001/REC-SVG-20010904/DTD/svg10.dtd">
<svg version="1.0" xmlns="http://www.w3.org/2000/svg"
 width="696.000000pt" height="590.000000pt" viewBox="0 0 696.000000 590.000000"
 preserveAspectRatio="xMidYMid meet">
<metadata>
Created by potrace 1.16, written by Peter Selinger 2001-2019
</metadata>
<g transform="translate(0.000000,590.000000) scale(0.100000,-0.100000)"
fill="#fff" stroke="none">
<path d="M881 5734 c-91 -32 -167 -99 -214 -189 l-32 -60 -3 -1805 c-2 -1993
-7 -1857 61 -1956 40 -58 115 -117 177 -140 32 -12 94 -19 213 -23 l167 -6
-290 -435 c-331 -495 -336 -505 -328 -658 3 -72 10 -100 35 -155 36 -75 114
-164 177 -201 100 -58 46 -56 1292 -56 1116 0 1143 0 1207 20 175 54 297 222
298 411 1 83 -12 142 -43 203 -11 22 -146 228 -299 458 l-279 418 1508 0
c1660 0 1574 -3 1674 61 62 40 105 90 137 159 l26 55 0 1825 0 1825 -29 58
c-35 68 -117 149 -183 180 l-48 22 -2590 2 c-2323 2 -2595 1 -2634 -13z m5209
-196 c28 -16 55 -43 70 -70 l25 -43 0 -1760 c0 -968 -3 -1772 -7 -1787 -11
-38 -54 -86 -99 -108 -37 -20 -70 -20 -1611 -20 l-1574 0 -102 150 -102 150
1492 0 1493 0 50 24 c59 28 117 85 142 141 17 38 18 116 21 1419 3 1524 6
1440 -61 1527 -17 23 -57 56 -87 73 l-55 31 -2185 0 -2185 0 -55 -31 c-30 -17
-70 -50 -87 -73 -67 -87 -64 -3 -61 -1527 3 -1303 4 -1381 21 -1419 25 -56 83
-113 142 -141 44 -21 64 -24 178 -24 l127 0 -100 -150 -100 -150 -211 0 c-188
0 -214 2 -248 20 -45 22 -88 70 -99 108 -4 15 -7 819 -7 1787 l0 1760 25 43
c24 43 67 77 118 92 15 5 1165 8 2557 7 l2530 -2 45 -27z m-402 -389 c26 -13
54 -38 70 -62 l27 -41 3 -1365 c2 -951 0 -1377 -8 -1403 -13 -45 -52 -93 -94
-116 -29 -16 -137 -17 -1543 -20 l-1512 -2 -66 97 -65 98 0 437 0 438 111 0
c61 0 119 5 130 10 18 10 19 24 19 240 0 216 -1 230 -19 240 -13 6 -222 10
-610 10 -523 0 -591 -2 -605 -16 -24 -23 -24 -445 0 -468 12 -13 39 -16 130
-16 l114 0 0 -438 0 -437 -66 -99 -66 -98 -146 4 c-161 4 -188 12 -236 68 -14
17 -30 48 -36 68 -8 26 -10 452 -8 1403 l3 1365 27 41 c15 23 44 49 70 62 l43
21 2144 0 2145 0 44 -21z m-3028 -1689 l0 -150 -525 0 -525 0 0 150 0 150 525
0 525 0 0 -150z m-250 -711 l0 -461 547 -816 c300 -449 555 -839 566 -867 30
-74 28 -175 -5 -247 -53 -115 -147 -188 -269 -208 -88 -14 -2141 -14 -2229 1
-123 20 -228 104 -270 217 -29 76 -25 195 10 262 12 25 267 411 566 857 l544
813 0 455 0 455 270 0 270 0 0 -461z"/>
<path d="M4825 4778 c-11 -6 -23 -16 -27 -22 -4 -6 -8 -491 -8 -1078 l0 -1068
-125 0 -125 0 0 728 c0 642 -2 730 -16 750 -15 22 -18 22 -274 22 -256 0 -259
0 -274 -22 -14 -20 -16 -108 -16 -750 l0 -728 -125 0 -125 0 0 510 c0 497 -1
511 -20 530 -19 19 -33 20 -269 20 -214 0 -252 -2 -265 -16 -14 -14 -16 -76
-16 -530 l0 -514 -118 0 c-131 0 -152 -9 -152 -63 0 -61 -99 -57 1380 -57
1483 0 1380 -4 1380 59 0 52 -24 61 -153 61 l-117 0 0 1074 c0 986 -1 1075
-17 1087 -22 19 -487 25 -518 7z m415 -1143 l0 -1025 -165 0 -165 0 0 1025 0
1025 165 0 165 0 0 -1025z m-830 -335 l0 -690 -160 0 -160 0 0 690 0 690 160
0 160 0 0 -690z m-830 -220 l0 -470 -160 0 -160 0 0 470 0 470 160 0 160 0 0
-470z"/>
<path d="M2203 2880 c-47 -20 -57 -87 -18 -125 69 -70 180 29 118 104 -21 24
-68 35 -100 21z"/>
<path d="M1597 1608 c-14 -13 -179 -254 -368 -536 l-344 -514 0 -67 c0 -57 4
-74 28 -109 15 -23 45 -51 67 -62 39 -20 55 -20 1155 -20 1009 0 1119 2 1148
16 77 39 111 99 105 185 -4 57 -9 65 -357 588 -242 362 -360 531 -374 535 -12
3 -250 6 -529 6 l-507 0 -24 -22z m1338 -604 c182 -273 331 -505 333 -515 2
-10 -8 -30 -22 -44 l-25 -25 -1081 0 c-743 0 -1088 3 -1101 11 -28 15 -42 55
-28 82 7 12 158 239 336 505 l324 482 467 0 467 -1 330 -495z"/>
<path d="M2221 1284 c-12 -15 -21 -37 -21 -49 0 -12 9 -34 21 -49 16 -20 29
-26 60 -26 50 0 79 27 79 75 0 48 -29 75 -79 75 -31 0 -44 -6 -60 -26z"/>
<path d="M1578 875 c-36 -20 -48 -44 -48 -95 0 -33 6 -48 29 -71 79 -79 211
11 167 114 -7 18 -20 38 -29 45 -25 21 -88 24 -119 7z"/>
<path d="M2524 829 c-47 -24 -56 -87 -19 -124 50 -51 135 -18 135 52 0 59 -64
98 -116 72z"/>
</g>
</svg>
