<?xml version="1.0" standalone="no"?>
<!DOCTYPE svg PUBLIC "-//W3C//DTD SVG 20010904//EN"
 "http://www.w3.org/TR/2001/REC-SVG-20010904/DTD/svg10.dtd">
<svg version="1.0" xmlns="http://www.w3.org/2000/svg"
 width="512.000000pt" height="512.000000pt" viewBox="0 0 512.000000 512.000000"
 preserveAspectRatio="xMidYMid meet">

<g transform="translate(0.000000,512.000000) scale(0.100000,-0.100000)"
fill="#fff" stroke="none">
<path d="M2453 5105 c-81 -22 -132 -52 -193 -114 -164 -164 -168 -418 -9 -586
95 -100 196 -141 333 -133 114 7 182 36 262 110 177 166 187 423 24 601 -104
114 -268 162 -417 122z"/>
<path d="M2152 4036 c-155 -38 -308 -159 -377 -298 -52 -107 -65 -165 -65
-304 0 -133 10 -161 73 -208 28 -21 33 -21 777 -21 744 0 749 0 777 21 62 46
73 76 73 200 0 143 -11 198 -63 303 -73 150 -219 268 -378 306 -85 20 -735 20
-817 1z"/>
<path d="M2507 2976 c-49 -18 -64 -32 -88 -77 -18 -35 -19 -62 -19 -361 l-1
-323 -324 -224 c-179 -123 -332 -236 -342 -250 -22 -34 -29 -113 -13 -151 27
-65 117 -110 184 -92 18 5 174 107 345 225 l312 216 311 -216 c170 -118 325
-219 344 -225 67 -18 157 27 184 92 16 38 9 117 -14 152 -9 14 -163 127 -341
250 l-324 223 -1 323 c0 301 -1 325 -20 361 -35 69 -121 103 -193 77z"/>
<path d="M740 1904 c-116 -31 -214 -115 -271 -229 -32 -66 -34 -75 -34 -180 0
-103 2 -114 32 -177 44 -94 109 -160 202 -206 73 -36 78 -37 186 -37 106 0
113 2 180 34 264 130 325 463 124 676 -109 115 -267 160 -419 119z"/>
<path d="M4159 1906 c-112 -32 -221 -121 -272 -222 -118 -236 3 -518 258 -598
42 -14 79 -17 145 -14 77 4 98 9 163 41 91 45 156 112 200 205 40 86 49 209
21 297 -39 124 -138 232 -256 277 -67 25 -196 33 -259 14z"/>
<path d="M440 834 c-162 -43 -309 -164 -379 -315 -48 -103 -64 -187 -59 -318
3 -107 13 -132 72 -175 27 -21 38 -21 767 -24 721 -2 740 -2 778 18 21 10 50
36 62 57 22 34 24 49 24 153 0 63 -6 140 -14 170 -50 207 -221 381 -427 434
-86 22 -740 22 -824 0z"/>
<path d="M3845 831 c-203 -58 -367 -228 -416 -431 -8 -30 -14 -107 -14 -170 0
-104 2 -119 24 -153 12 -21 41 -47 62 -57 38 -20 57 -20 778 -18 729 3 740 3
767 24 59 43 69 68 72 175 2 55 -1 130 -8 167 -38 219 -217 411 -435 467 -92
23 -745 21 -830 -4z"/>
</g>
</svg>
