<?xml version="1.0" standalone="no"?>
<!DOCTYPE svg PUBLIC "-//W3C//DTD SVG 20010904//EN"
 "http://www.w3.org/TR/2001/REC-SVG-20010904/DTD/svg10.dtd">
<svg version="1.0" xmlns="http://www.w3.org/2000/svg"
 width="512.000000pt" height="512.000000pt" viewBox="0 0 512.000000 512.000000"
 preserveAspectRatio="xMidYMid meet">

<g transform="translate(0.000000,512.000000) scale(0.100000,-0.100000)"
fill="#fff" stroke="none">
<path d="M529 4620 c-76 -9 -181 -49 -255 -96 -73 -47 -169 -156 -209 -238
-54 -109 -65 -179 -65 -428 l0 -218 2560 0 2560 0 0 218 c0 151 -5 238 -15
287 -43 204 -208 387 -408 451 -73 23 -100 26 -237 27 l-155 2 -3 -149 -3
-150 40 -40 c59 -62 74 -98 69 -170 -4 -71 -34 -123 -95 -164 -33 -23 -48 -27
-113 -27 -65 0 -80 4 -113 27 -61 41 -91 93 -95 164 -5 72 10 108 69 170 l40
40 -3 150 -3 149 -442 3 -443 2 0 -153 0 -153 43 -46 c41 -43 67 -102 67 -155
0 -42 -24 -97 -56 -133 -97 -107 -273 -87 -342 38 -48 86 -21 220 53 268 25
16 25 18 25 175 l0 159 -440 0 -440 0 0 -159 c0 -157 0 -159 25 -175 74 -48
101 -182 53 -268 -69 -125 -245 -145 -342 -38 -77 85 -72 202 11 288 l43 46 0
153 0 153 -442 -2 -443 -3 -3 -149 -3 -150 40 -40 c59 -62 74 -98 69 -170 -4
-71 -34 -123 -95 -164 -33 -23 -48 -27 -113 -27 -65 0 -80 4 -113 27 -61 41
-91 93 -95 164 -5 72 10 108 69 170 l40 40 -3 150 -3 149 -110 1 c-60 1 -140
-2 -176 -6z"/>
<path d="M0 2243 c0 -1327 -2 -1273 66 -1411 42 -87 134 -189 218 -244 33 -21
96 -51 140 -66 l81 -27 2055 0 2055 0 81 27 c206 70 366 247 409 453 12 59 15
253 15 1268 l0 1197 -2560 0 -2560 0 0 -1197z m1240 777 c19 -19 20 -33 20
-252 0 -128 -4 -238 -8 -244 -20 -30 -55 -34 -320 -34 -257 0 -270 1 -296 21
l-26 20 0 235 c0 221 1 235 20 254 19 19 33 20 305 20 272 0 286 -1 305 -20z
m1078 4 c22 -15 22 -18 22 -258 0 -214 -2 -245 -17 -257 -13 -11 -75 -14 -304
-14 -263 0 -290 2 -306 18 -16 16 -18 43 -21 245 -3 220 -2 229 18 255 l21 27
283 0 c239 0 285 -2 304 -16z m1092 -11 c20 -26 21 -35 18 -255 -3 -202 -5
-229 -21 -245 -16 -16 -43 -18 -306 -18 -229 0 -291 3 -304 14 -15 12 -17 43
-17 257 0 240 0 243 22 258 19 14 65 16 304 16 l283 0 21 -27z m1080 7 c19
-19 20 -33 20 -254 l0 -235 -26 -20 c-26 -20 -39 -21 -296 -21 -265 0 -300 4
-320 34 -4 6 -8 116 -8 244 0 219 1 233 20 252 19 19 33 20 305 20 272 0 286
-1 305 -20z m-3246 -782 c24 -34 24 -473 -1 -500 -15 -17 -38 -18 -309 -18
-291 0 -293 0 -308 22 -24 33 -24 463 0 496 15 22 17 22 309 22 292 0 294 0
309 -22z m1078 5 c16 -15 18 -36 18 -254 0 -203 -2 -240 -16 -253 -13 -14 -55
-16 -308 -16 -261 0 -295 2 -307 17 -11 13 -14 67 -14 255 0 226 1 240 19 254
16 11 74 14 305 14 251 0 287 -2 303 -17z m1084 3 c18 -14 19 -28 19 -254 0
-188 -3 -242 -14 -255 -12 -15 -46 -17 -307 -17 -253 0 -295 2 -308 16 -14 13
-16 50 -16 251 0 206 2 239 17 255 15 17 38 18 303 18 231 0 290 -3 306 -14z
m1088 -8 c13 -19 16 -60 16 -248 0 -188 -3 -229 -16 -248 -15 -22 -17 -22
-306 -22 -257 0 -294 2 -310 17 -16 15 -18 36 -18 247 0 193 3 235 16 254 15
22 17 22 309 22 292 0 294 0 309 -22z m-3255 -772 c20 -18 21 -28 21 -253 0
-220 -1 -234 -20 -253 -19 -19 -33 -20 -305 -20 -272 0 -286 1 -305 20 -19 19
-20 33 -20 253 0 249 0 251 50 270 8 3 137 5 286 4 252 -2 273 -3 293 -21z
m1087 0 c11 -16 14 -68 14 -255 0 -204 -2 -237 -17 -253 -15 -17 -38 -18 -302
-18 -157 0 -291 4 -297 8 -29 19 -34 56 -34 261 0 115 4 221 10 236 5 14 20
30 32 35 13 5 147 8 301 7 263 -2 279 -3 293 -21z m1081 1 c16 -16 18 -42 21
-234 2 -120 1 -227 -2 -239 -14 -54 -15 -54 -323 -54 -253 0 -289 2 -305 17
-16 15 -18 36 -18 253 0 242 3 259 40 273 8 3 140 5 292 4 251 -2 279 -4 295
-20z m1082 -1 c20 -18 21 -28 21 -253 0 -220 -1 -234 -20 -253 -19 -19 -33
-20 -305 -20 -272 0 -286 1 -305 20 -19 19 -20 33 -20 253 0 249 0 251 50 270
8 3 137 5 286 4 252 -2 273 -3 293 -21z"/>
</g>
</svg>
