<?xml version="1.0" standalone="no"?>
<!DOCTYPE svg PUBLIC "-//W3C//DTD SVG 20010904//EN"
 "http://www.w3.org/TR/2001/REC-SVG-20010904/DTD/svg10.dtd">
<svg version="1.0" xmlns="http://www.w3.org/2000/svg"
 width="512.000000pt" height="512.000000pt" viewBox="0 0 512.000000 512.000000"
 preserveAspectRatio="xMidYMid meet">

<g transform="translate(0.000000,512.000000) scale(0.100000,-0.100000)"
fill="#fff" stroke="none">
<path d="M780 5103 c-19 -10 -45 -33 -57 -52 -21 -31 -23 -45 -23 -181 l0
-147 -132 -5 c-109 -4 -145 -10 -200 -30 -163 -61 -278 -178 -340 -344 -20
-54 -22 -81 -26 -341 l-4 -283 2562 0 2562 0 -4 283 c-4 260 -6 287 -26 341
-62 166 -177 283 -340 344 -55 20 -91 26 -199 30 l-133 5 0 144 c0 108 -4 151
-15 173 -62 119 -238 97 -274 -35 -6 -22 -11 -95 -11 -162 l0 -123 -190 0
-190 0 0 137 c0 116 -3 143 -20 178 -53 110 -212 111 -264 1 -12 -26 -16 -66
-16 -175 l0 -141 -195 0 -195 0 0 149 c0 137 -2 151 -23 182 -61 91 -181 89
-251 -5 -19 -24 -21 -45 -24 -177 l-4 -149 -188 0 -188 0 -4 149 c-3 132 -5
153 -24 177 -70 94 -190 96 -251 5 -21 -31 -23 -45 -23 -182 l0 -149 -195 0
-195 0 0 141 c0 109 -4 149 -16 175 -52 110 -211 109 -264 -1 -17 -35 -20 -62
-20 -178 l0 -137 -189 0 -189 0 -4 143 c-3 155 -13 188 -69 230 -38 28 -106
32 -149 10z m218 -600 c-3 -197 -5 -221 -23 -252 -59 -100 -189 -106 -252 -12
-22 33 -23 42 -23 257 l0 224 151 0 150 0 -3 -217z m682 1 c0 -238 -5 -265
-62 -305 -72 -52 -179 -25 -217 55 -19 39 -21 61 -21 254 l0 212 150 0 150 0
0 -216z m688 -8 c-3 -208 -4 -227 -24 -252 -70 -94 -190 -96 -251 -5 -22 33
-23 42 -23 257 l0 224 151 0 150 0 -3 -224z m682 0 c0 -215 -1 -224 -23 -257
-61 -91 -181 -89 -251 5 -20 25 -21 44 -24 252 l-3 224 150 0 151 0 0 -224z
m690 12 c0 -193 -2 -215 -21 -254 -38 -80 -145 -107 -217 -55 -57 40 -62 67
-62 305 l0 216 150 0 150 0 0 -212z m680 -12 c0 -215 -1 -224 -23 -257 -63
-94 -193 -88 -252 12 -18 31 -20 55 -23 252 l-3 217 150 0 151 0 0 -224z"/>
<path d="M2 1928 l3 -1493 23 -59 c64 -170 187 -291 350 -348 l67 -23 2115 0
2115 0 67 23 c163 57 286 178 350 348 l23 59 3 1493 2 1492 -2560 0 -2560 0 2
-1492z m3340 631 c413 -165 769 -309 790 -320 24 -12 45 -34 58 -59 19 -38 20
-58 20 -520 0 -462 -1 -482 -20 -520 -23 -45 -80 -80 -131 -80 -46 0 -108 39
-130 82 -18 34 -19 63 -19 392 l0 354 -200 -80 -199 -80 -3 -351 -3 -352 -31
-65 c-87 -183 -293 -309 -608 -372 -147 -30 -452 -32 -591 -5 -329 65 -541
191 -628 375 l-32 67 -3 352 -3 351 -282 113 c-155 62 -303 123 -329 136 -107
52 -117 199 -19 257 64 37 1547 625 1578 626 21 0 320 -115 785 -301z"/>
<path d="M2018 2332 c-296 -119 -538 -219 -538 -222 0 -3 243 -103 540 -222
l540 -216 540 216 c297 119 540 219 540 222 0 5 -1032 423 -1075 435 -5 2
-252 -94 -547 -213z"/>
<path d="M1910 1352 c0 -296 -1 -293 91 -354 138 -90 310 -131 554 -132 247
-1 427 41 561 130 95 63 94 59 94 356 l0 256 -310 -124 c-170 -68 -323 -124
-340 -124 -17 0 -170 56 -340 124 l-310 124 0 -256z"/>
</g>
</svg>
