<?xml version="1.0" standalone="no"?>
<!DOCTYPE svg PUBLIC "-//W3C//DTD SVG 20010904//EN"
 "http://www.w3.org/TR/2001/REC-SVG-20010904/DTD/svg10.dtd">
<svg version="1.0" xmlns="http://www.w3.org/2000/svg"
 width="512.000000pt" height="512.000000pt" viewBox="0 0 512.000000 512.000000"
 preserveAspectRatio="xMidYMid meet">

<g transform="translate(0.000000,512.000000) scale(0.100000,-0.100000)"
fill="#fff" stroke="none">
<path d="M275 5106 c-111 -35 -190 -104 -239 -206 l-31 -65 0 -355 0 -355 31
-65 c39 -83 101 -145 184 -184 l65 -31 2275 0 2275 0 67 32 c82 39 142 99 182
183 l31 65 0 355 0 355 -31 65 c-40 84 -100 144 -182 183 l-67 32 -2260 2
c-1806 1 -2268 -1 -2300 -11z"/>
<path d="M95 3506 c-94 -41 -124 -168 -58 -247 53 -62 -5 -59 1138 -59 1021 0
1047 0 1084 20 113 57 113 223 0 280 -37 20 -63 20 -1086 20 -849 -1 -1054 -3
-1078 -14z"/>
<path d="M3049 3506 c-106 -28 -209 -121 -251 -224 -23 -57 -23 -58 -23 -562
l0 -505 23 -57 c33 -81 108 -160 190 -200 l67 -33 890 0 890 0 67 32 c82 39
142 99 182 183 l31 65 0 515 0 515 -31 65 c-40 84 -100 144 -182 183 l-67 32
-870 2 c-667 1 -881 -1 -916 -11z"/>
<path d="M95 2866 c-94 -41 -124 -168 -58 -247 53 -62 -5 -59 1138 -59 1021 0
1047 0 1084 20 113 57 113 223 0 280 -37 20 -63 20 -1086 20 -849 -1 -1054 -3
-1078 -14z"/>
<path d="M95 2226 c-94 -41 -124 -168 -58 -247 53 -62 -5 -59 1138 -59 1021 0
1047 0 1084 20 113 57 113 223 0 280 -37 20 -63 20 -1086 20 -849 -1 -1054 -3
-1078 -14z"/>
<path d="M95 1586 c-67 -29 -105 -106 -91 -181 9 -47 59 -102 104 -115 26 -8
785 -10 2474 -8 l2437 3 27 21 c53 39 69 71 69 134 0 63 -16 95 -69 134 l-27
21 -2447 2 c-2019 2 -2452 0 -2477 -11z"/>
<path d="M95 946 c-67 -29 -105 -106 -91 -181 9 -47 59 -102 104 -115 26 -8
785 -10 2474 -8 l2437 3 27 21 c53 39 69 71 69 134 0 63 -16 95 -69 134 l-27
21 -2447 2 c-2019 2 -2452 0 -2477 -11z"/>
<path d="M95 306 c-67 -29 -105 -106 -91 -181 9 -47 59 -102 104 -115 26 -8
785 -10 2474 -8 l2437 3 27 21 c53 39 69 71 69 134 0 63 -16 95 -69 134 l-27
21 -2447 2 c-2019 2 -2452 0 -2477 -11z"/>
</g>
</svg>
