<?xml version="1.0" standalone="no"?>
<!DOCTYPE svg PUBLIC "-//W3C//DTD SVG 20010904//EN"
 "http://www.w3.org/TR/2001/REC-SVG-20010904/DTD/svg10.dtd">
<svg version="1.0" xmlns="http://www.w3.org/2000/svg"
 width="512.000000pt" height="512.000000pt" viewBox="0 0 512.000000 512.000000"
 preserveAspectRatio="xMidYMid meet">
<metadata>
Created by potrace 1.16, written by Peter Selinger 2001-2019
</metadata>
<g transform="translate(0.000000,512.000000) scale(0.100000,-0.100000)"
fill="#fff" stroke="none">
<path d="M26 5094 l-26 -27 0 -197 0 -197 26 -27 27 -26 2507 0 2507 0 27 26
26 27 0 197 0 197 -26 27 -27 26 -2507 0 -2507 0 -27 -26z"/>
<path d="M290 2700 c0 -1143 3 -1626 11 -1643 26 -57 23 -57 556 -57 l489 0
35 68 35 68 -314 594 c-348 658 -347 656 -299 729 51 77 158 89 219 24 14 -16
159 -282 323 -593 163 -311 300 -568 303 -572 4 -4 32 0 62 8 39 10 117 14
281 14 l226 0 12 86 c24 173 91 306 215 429 94 93 162 135 283 178 85 30 96
31 291 35 111 2 202 5 202 7 0 1 -14 29 -30 62 -17 33 -40 97 -51 143 -19 74
-20 104 -17 323 4 232 5 245 30 315 38 104 83 176 158 252 124 123 253 180
425 187 129 6 199 -9 315 -65 111 -54 233 -178 288 -292 59 -123 72 -202 72
-437 0 -228 -12 -299 -65 -412 -20 -41 -34 -75 -33 -76 2 -2 119 -5 261 -7
l257 -3 0 1128 0 1127 -2270 0 -2270 0 0 -1620z m2387 1164 c98 -80 69 -219
-52 -253 -55 -15 -1554 -15 -1609 0 -105 29 -143 153 -73 234 48 55 35 55 899
52 l796 -2 39 -31z m-7 -696 c91 -63 89 -173 -4 -242 -27 -21 -35 -21 -844
-21 l-817 0 -33 23 c-87 63 -85 184 4 243 28 18 59 19 845 19 l816 0 33 -22z"/>
<path d="M3651 3054 c-98 -35 -165 -97 -210 -194 -26 -54 -26 -58 -26 -290 0
-234 0 -235 27 -292 34 -73 103 -142 176 -176 77 -36 211 -38 285 -4 103 47
170 125 202 235 14 48 16 94 13 265 -3 199 -4 209 -29 263 -36 77 -87 130
-161 169 -55 30 -74 34 -148 37 -60 2 -98 -2 -129 -13z"/>
<path d="M2841 1764 c-168 -45 -294 -184 -321 -354 -5 -36 -10 -108 -10 -160
0 -108 -15 -145 -72 -180 -31 -19 -51 -20 -338 -20 -179 0 -320 -4 -342 -10
-82 -23 -138 -101 -138 -194 0 -92 36 -150 115 -187 37 -17 75 -19 541 -19
l501 0 33 23 c70 47 74 61 80 247 4 150 7 172 26 196 69 93 181 95 241 5 l23
-34 0 -492 c0 -325 4 -502 11 -523 22 -64 2 -62 609 -62 l550 0 0 539 0 538
23 33 c62 91 172 89 241 -4 21 -27 21 -40 24 -567 l3 -539 213 0 213 0 27 26
26 27 0 687 c0 648 -1 690 -19 742 -25 74 -58 124 -118 180 -59 54 -110 82
-190 103 -84 22 -1870 21 -1952 -1z"/>
</g>
</svg>
