<?xml version="1.0" standalone="no"?>
<!DOCTYPE svg PUBLIC "-//W3C//DTD SVG 20010904//EN"
 "http://www.w3.org/TR/2001/REC-SVG-20010904/DTD/svg10.dtd">
<svg version="1.0" xmlns="http://www.w3.org/2000/svg"
 width="512.000000pt" height="512.000000pt" viewBox="0 0 512.000000 512.000000"
 preserveAspectRatio="xMidYMid meet">

<g transform="translate(0.000000,512.000000) scale(0.100000,-0.100000)"
fill="#fff" stroke="none">
<path d="M1989 4944 c-366 -66 -659 -340 -761 -713 -17 -62 -21 -105 -21 -231
0 -171 13 -241 73 -381 70 -165 228 -349 374 -433 l67 -39 -118 -42 c-589
-207 -1023 -711 -1198 -1391 -62 -240 -106 -656 -75 -713 22 -41 384 -205 670
-303 637 -219 1183 -269 1750 -162 l74 14 126 -125 c117 -116 130 -125 165
-125 34 0 46 9 126 86 59 59 93 85 103 81 13 -5 16 -28 16 -132 0 -120 1 -127
25 -150 l24 -25 271 0 271 0 24 25 c24 23 25 30 25 150 0 104 3 127 16 132 10
4 44 -22 103 -81 132 -129 119 -133 353 102 235 234 231 221 102 353 -59 59
-85 93 -81 103 5 13 28 16 132 16 120 0 127 1 150 25 l25 24 0 271 0 271 -25
24 c-23 24 -30 25 -150 25 -104 0 -127 3 -132 16 -4 10 22 44 81 103 129 132
133 119 -102 353 -234 235 -221 231 -353 102 -59 -59 -93 -85 -103 -81 -13 5
-16 28 -16 132 0 120 -1 127 -25 150 -24 25 -27 25 -192 25 l-169 0 -54 78
c-76 107 -295 324 -410 405 -117 83 -334 193 -457 232 l-91 29 87 57 c199 131
347 344 408 585 26 103 23 343 -5 445 -102 376 -397 649 -769 714 -104 18
-232 18 -334 -1z m361 -167 c100 -28 168 -57 242 -106 367 -240 476 -718 248
-1088 -235 -381 -741 -497 -1112 -254 -318 208 -445 591 -316 949 93 257 319
448 598 508 80 17 262 12 340 -9z m10 -1751 c312 -42 589 -169 831 -381 70
-62 218 -222 219 -237 0 -4 -11 -18 -25 -32 -24 -24 -25 -30 -25 -151 0 -104
-3 -127 -16 -132 -10 -4 -44 22 -103 81 -132 129 -119 133 -353 -102 -235
-234 -231 -221 -102 -353 59 -59 85 -93 81 -103 -5 -13 -28 -16 -132 -16 -120
0 -127 -1 -150 -25 l-25 -24 0 -271 0 -271 25 -24 c23 -24 30 -25 150 -25 104
0 127 -3 132 -16 4 -10 -22 -44 -81 -103 -70 -72 -86 -94 -86 -119 0 -35 3
-34 -170 -59 -192 -26 -560 -24 -748 5 -268 42 -520 107 -808 210 -122 44
-347 138 -435 183 -68 34 -66 23 -49 204 62 671 355 1213 820 1520 307 202
687 289 1050 241z m1480 -895 c0 -131 8 -144 110 -186 117 -49 118 -49 213 44
l83 80 112 -112 111 -112 -80 -82 c-93 -94 -93 -96 -44 -213 42 -102 55 -110
186 -110 l109 0 0 -160 0 -160 -109 0 c-131 0 -144 -8 -186 -110 -49 -117 -49
-118 44 -213 l80 -83 -112 -112 -112 -111 -82 80 c-94 93 -96 93 -213 44 -102
-42 -110 -55 -110 -186 l0 -109 -160 0 -160 0 0 109 c0 131 -8 144 -110 186
-117 49 -119 49 -213 -44 l-82 -80 -112 111 -112 112 80 83 c93 95 93 96 44
213 -42 102 -55 110 -186 110 l-109 0 0 160 0 160 109 0 c131 0 144 8 186 110
49 117 49 119 -44 213 l-80 82 111 112 112 112 83 -80 c95 -93 96 -93 213 -44
102 42 110 55 110 186 l0 109 160 0 160 0 0 -109z"/>
<path d="M3580 1584 c-192 -70 -273 -277 -179 -455 36 -67 68 -98 143 -137 43
-22 64 -26 136 -27 79 0 90 3 150 36 231 127 222 456 -15 568 -65 31 -172 38
-235 15z m163 -158 c104 -43 128 -175 47 -256 -66 -66 -156 -67 -221 -1 -124
123 13 325 174 257z"/>
</g>
</svg>
